<svg id="svg" version="1.1" width="400" height="430.89770354906057" viewBox="0 0 400 430.89770354906057" xmlns="http://www.w3.org/2000/svg" xmlns:xlink="http://www.w3.org/1999/xlink"><g id="svgg"><path id="path0" d="M28.106 159.359 C 26.049 161.466,25.624 163.609,25.601 172.000 C 25.593 174.970,25.418 179.020,25.212 181.000 C 25.006 182.980,24.818 186.670,24.795 189.200 C 24.772 191.730,24.585 196.140,24.379 199.000 C 24.035 203.779,23.708 209.104,22.722 226.000 C 22.523 229.410,22.271 235.349,22.161 239.199 C 22.052 243.048,21.791 246.369,21.581 246.579 C 21.072 247.088,21.090 254.285,21.601 254.601 C 21.822 254.737,23.217 255.011,24.701 255.208 C 28.658 255.734,30.000 256.047,30.000 256.445 C 30.000 256.640,30.275 256.800,30.611 256.800 C 32.728 256.800,37.971 264.908,37.994 268.220 C 37.997 268.671,38.197 269.237,38.438 269.478 C 39.680 270.720,38.152 285.328,36.716 285.933 C 36.542 286.007,36.400 286.518,36.400 287.070 C 36.400 287.682,35.660 288.952,34.500 290.333 C 30.650 294.912,28.506 296.000,23.332 296.000 L 19.600 296.000 19.600 298.000 C 19.600 299.100,19.420 300.000,19.200 300.000 C 18.946 300.000,18.800 303.107,18.800 308.520 C 18.800 313.266,18.634 317.208,18.426 317.420 C 18.220 317.629,18.012 321.580,17.963 326.200 C 17.914 330.820,17.742 334.780,17.581 335.000 C 17.420 335.220,17.177 338.820,17.041 343.000 C 16.906 347.180,16.687 352.079,16.555 353.887 C 16.374 356.380,16.447 357.298,16.858 357.687 C 17.627 358.415,20.037 359.200,21.505 359.200 C 22.191 359.200,22.864 359.380,23.000 359.600 C 23.136 359.820,23.856 360.000,24.600 360.000 C 25.344 360.000,26.064 360.180,26.200 360.400 C 26.336 360.620,27.056 360.800,27.800 360.800 C 28.544 360.800,29.264 360.980,29.400 361.200 C 29.536 361.420,30.346 361.600,31.200 361.600 C 32.054 361.600,32.864 361.780,33.000 362.000 C 33.136 362.220,33.831 362.400,34.544 362.400 C 35.257 362.400,36.011 362.555,36.220 362.745 C 36.429 362.935,40.200 363.929,44.600 364.954 C 49.000 365.979,53.153 366.994,53.828 367.209 C 54.504 367.424,55.438 367.600,55.905 367.600 C 56.371 367.600,56.864 367.780,57.000 368.000 C 57.136 368.220,57.856 368.400,58.600 368.400 C 59.344 368.400,60.064 368.580,60.200 368.800 C 60.336 369.020,60.919 369.200,61.495 369.200 C 62.072 369.200,63.096 369.368,63.772 369.573 C 64.447 369.778,65.765 370.138,66.700 370.373 C 67.635 370.608,69.165 370.995,70.100 371.233 C 71.035 371.471,72.475 371.831,73.300 372.033 C 74.125 372.235,75.475 372.575,76.300 372.790 C 81.717 374.197,91.212 376.505,92.304 376.680 C 93.021 376.795,93.706 377.049,93.827 377.244 C 93.948 377.440,94.757 377.600,95.624 377.600 C 96.491 377.600,97.200 377.780,97.200 378.000 C 97.200 378.220,97.909 378.400,98.776 378.400 C 99.643 378.400,100.464 378.580,100.600 378.800 C 100.736 379.020,101.456 379.200,102.200 379.200 C 102.944 379.200,103.664 379.380,103.800 379.600 C 103.936 379.820,104.757 380.000,105.624 380.000 C 106.491 380.000,107.200 380.180,107.200 380.400 C 107.200 380.620,107.909 380.800,108.776 380.800 C 109.643 380.800,110.464 380.980,110.600 381.200 C 110.736 381.420,111.456 381.600,112.200 381.600 C 112.944 381.600,113.652 381.761,113.774 381.958 C 113.895 382.155,114.671 382.413,115.497 382.532 C 117.070 382.758,119.497 383.276,122.200 383.962 C 123.080 384.186,126.050 384.938,128.800 385.634 C 131.550 386.331,134.160 387.046,134.600 387.223 C 135.040 387.400,135.940 387.637,136.600 387.748 C 137.260 387.860,138.610 388.155,139.600 388.404 C 140.590 388.654,142.007 388.957,142.750 389.078 C 144.948 389.438,145.999 390.199,147.747 392.696 C 152.132 398.964,157.551 404.334,161.545 406.372 C 162.425 406.821,163.252 407.360,163.381 407.569 C 163.724 408.123,166.005 409.200,166.838 409.200 C 167.231 409.200,167.664 409.380,167.800 409.600 C 167.936 409.820,168.397 410.000,168.824 410.000 C 169.251 410.000,169.600 410.160,169.600 410.356 C 169.600 410.691,170.522 410.917,174.103 411.458 C 174.929 411.582,175.705 411.845,175.826 412.042 C 175.948 412.239,177.252 412.413,178.724 412.429 C 180.196 412.445,182.390 412.611,183.600 412.798 C 189.646 413.731,206.569 409.964,208.800 407.189 C 208.910 407.052,210.170 406.157,211.600 405.201 C 214.242 403.433,222.800 395.163,222.800 394.377 C 222.800 394.140,223.428 393.284,224.197 392.473 C 224.965 391.663,225.595 390.775,225.597 390.500 C 225.598 390.225,225.722 390.000,225.871 390.000 C 226.020 390.000,228.855 389.460,232.171 388.799 C 235.487 388.139,239.280 387.402,240.600 387.162 C 241.920 386.921,243.270 386.628,243.600 386.510 C 243.930 386.392,244.711 386.228,245.335 386.147 C 245.959 386.066,248.209 385.633,250.335 385.185 C 252.461 384.737,255.640 384.091,257.400 383.749 C 268.872 381.521,272.717 380.778,276.800 380.001 C 279.330 379.519,282.750 378.848,284.400 378.510 C 286.050 378.172,288.390 377.724,289.600 377.515 C 293.965 376.763,296.667 376.219,300.200 375.381 C 301.520 375.068,306.470 374.078,311.200 373.182 C 325.594 370.456,328.113 369.981,330.400 369.558 C 331.610 369.335,333.153 368.983,333.828 368.776 C 334.504 368.569,335.494 368.393,336.028 368.385 C 336.563 368.376,340.420 367.652,344.600 366.775 C 348.780 365.899,354.630 364.724,357.600 364.165 C 360.570 363.606,363.415 362.880,363.923 362.551 L 364.845 361.952 364.760 327.583 L 364.674 293.214 362.800 291.507 C 361.769 290.568,360.689 289.354,360.400 288.808 C 360.110 288.263,359.677 287.594,359.437 287.322 C 358.286 286.020,358.000 285.603,358.000 285.229 C 358.000 285.006,357.640 284.183,357.200 283.400 C 356.760 282.617,356.400 281.657,356.400 281.268 C 356.400 280.879,356.247 280.389,356.060 280.180 C 354.430 278.361,354.661 268.568,356.416 265.054 C 357.673 262.537,361.564 259.200,363.241 259.200 C 364.873 259.200,364.838 260.296,364.716 212.713 C 364.586 161.881,364.796 165.316,361.665 162.921 C 360.026 161.667,356.095 161.413,352.400 162.322 C 351.410 162.566,349.700 162.941,348.600 163.156 C 345.355 163.790,339.342 165.066,334.200 166.213 C 331.560 166.802,328.680 167.365,327.800 167.465 C 326.920 167.564,325.840 167.803,325.400 167.995 C 324.960 168.188,323.970 168.456,323.200 168.591 C 322.430 168.726,320.810 169.016,319.600 169.237 C 318.390 169.457,316.635 169.737,315.700 169.859 C 314.765 169.981,314.000 170.242,314.000 170.440 C 314.000 170.638,313.111 170.800,312.024 170.800 C 310.937 170.800,309.936 170.980,309.800 171.200 C 309.664 171.420,308.764 171.600,307.800 171.600 C 306.836 171.600,305.936 171.780,305.800 172.000 C 305.664 172.220,304.873 172.400,304.043 172.400 C 303.213 172.400,302.406 172.527,302.250 172.683 C 302.094 172.839,297.339 173.927,291.684 175.102 C 278.445 177.852,277.708 177.998,275.800 178.261 C 274.920 178.383,274.029 178.644,273.820 178.841 C 273.611 179.038,272.702 179.200,271.800 179.200 C 270.898 179.200,269.989 179.362,269.780 179.559 C 269.571 179.756,268.635 180.026,267.700 180.159 C 266.765 180.292,265.235 180.508,264.300 180.641 C 263.365 180.774,262.429 181.044,262.220 181.241 C 262.011 181.438,260.976 181.600,259.920 181.600 C 258.864 181.600,258.000 181.780,258.000 182.000 C 258.000 182.220,257.553 182.400,257.006 182.400 C 256.459 182.400,255.244 182.584,254.306 182.809 C 252.567 183.226,247.885 184.214,245.000 184.773 C 238.201 186.092,234.498 186.911,233.905 187.228 C 233.523 187.433,232.398 187.600,231.405 187.600 C 230.412 187.600,229.600 187.780,229.600 188.000 C 229.600 189.187,227.397 188.286,225.686 186.400 C 224.688 185.300,223.638 184.400,223.354 184.400 C 223.069 184.400,222.386 183.950,221.836 183.400 C 221.286 182.850,220.558 182.400,220.218 182.400 C 219.878 182.400,219.600 182.220,219.600 182.000 C 219.600 181.780,219.240 181.600,218.800 181.600 C 218.360 181.600,218.000 181.420,218.000 181.200 C 218.000 180.980,217.471 180.800,216.824 180.800 C 216.177 180.800,215.536 180.620,215.400 180.400 C 215.264 180.180,214.749 180.000,214.256 180.000 C 213.763 180.000,213.189 179.835,212.980 179.634 C 212.771 179.432,211.520 179.169,210.200 179.049 C 208.880 178.929,206.450 178.626,204.800 178.375 C 203.150 178.124,197.932 177.840,193.204 177.744 C 188.477 177.648,184.436 177.396,184.224 177.184 C 183.642 176.602,182.800 176.725,182.800 177.392 C 182.800 177.718,182.305 178.089,181.700 178.215 C 181.095 178.342,179.845 178.616,178.923 178.823 C 178.000 179.030,176.616 179.200,175.846 179.200 C 175.077 179.200,174.336 179.380,174.200 179.600 C 174.064 179.820,173.468 180.008,172.876 180.018 C 171.595 180.039,168.159 180.908,167.753 181.314 C 167.595 181.471,167.158 181.600,166.780 181.600 C 164.597 181.600,157.092 186.380,156.395 188.214 C 156.078 189.046,155.980 189.060,153.733 188.580 C 146.516 187.039,135.431 184.375,132.972 183.591 C 132.296 183.376,131.362 183.200,130.895 183.200 C 130.429 183.200,129.936 183.020,129.800 182.800 C 129.664 182.580,129.021 182.400,128.371 182.400 C 127.721 182.400,126.877 182.227,126.495 182.016 C 125.907 181.692,122.129 180.683,116.000 179.213 C 115.230 179.029,112.080 178.221,109.000 177.418 C 105.920 176.614,102.770 175.803,102.000 175.615 C 100.184 175.170,96.139 174.061,94.572 173.579 C 93.896 173.370,93.039 173.200,92.666 173.200 C 92.294 173.200,91.677 173.026,91.295 172.814 C 90.913 172.601,87.540 171.690,83.800 170.789 C 80.060 169.888,76.460 168.984,75.800 168.781 C 73.527 168.079,61.798 165.116,60.496 164.914 C 59.779 164.803,59.094 164.551,58.973 164.356 C 58.852 164.160,58.054 164.000,57.200 164.000 C 56.346 164.000,55.536 163.820,55.400 163.600 C 55.264 163.380,54.801 163.200,54.371 163.200 C 53.941 163.200,53.277 163.028,52.895 162.819 C 52.513 162.609,49.243 161.719,45.628 160.840 C 41.204 159.765,38.936 159.029,38.690 158.589 C 38.394 158.060,37.951 157.987,36.362 158.205 C 35.044 158.386,34.400 158.331,34.400 158.038 C 34.400 156.647,29.813 157.610,28.106 159.359 " stroke="none" fill="#fbcf1a" fill-rule="evenodd"></path><path id="path1" d="M11.867 2.217 C 9.490 4.890,5.795 6.786,2.355 7.098 C -0.116 7.322,-1.141 8.400,1.116 8.400 C 5.647 8.400,14.800 3.020,14.800 0.357 C 14.800 -0.517,13.651 0.212,11.867 2.217 M126.800 63.253 C 125.150 63.445,123.487 63.782,123.105 64.001 C 122.723 64.220,121.879 64.400,121.229 64.400 C 120.579 64.400,119.936 64.580,119.800 64.800 C 119.664 65.020,118.969 65.200,118.256 65.200 C 116.897 65.200,114.808 65.986,114.803 66.500 C 114.801 66.665,114.375 66.800,113.855 66.800 C 112.755 66.800,107.540 69.405,104.855 71.296 C 103.835 72.014,102.511 72.854,101.913 73.162 C 99.328 74.492,91.832 82.789,90.440 85.861 C 90.225 86.335,89.860 86.839,89.628 86.983 C 88.383 87.752,84.436 97.358,82.965 103.200 C 81.506 108.996,81.388 122.961,82.776 125.556 C 83.009 125.991,83.200 126.863,83.200 127.494 C 83.200 128.124,83.352 128.811,83.537 129.020 C 83.722 129.229,84.095 130.435,84.365 131.700 C 84.636 132.965,85.024 134.000,85.229 134.000 C 85.433 134.000,85.600 134.360,85.600 134.800 C 85.600 135.240,85.780 135.600,86.000 135.600 C 86.220 135.600,86.400 136.039,86.400 136.576 C 86.400 137.716,86.788 138.013,88.869 138.466 C 89.711 138.650,91.075 138.972,91.900 139.182 C 92.725 139.392,94.930 139.922,96.800 140.359 C 98.670 140.797,100.650 141.266,101.200 141.402 C 101.750 141.538,103.010 141.835,104.000 142.062 C 104.990 142.289,106.160 142.617,106.600 142.791 C 107.040 142.966,108.210 143.334,109.200 143.608 C 110.190 143.883,112.260 144.509,113.800 144.998 C 115.340 145.488,118.040 146.291,119.800 146.783 C 121.560 147.274,123.692 148.019,124.538 148.438 C 125.384 148.857,126.408 149.200,126.814 149.200 C 127.220 149.200,127.649 149.355,127.766 149.545 C 127.883 149.735,128.799 150.120,129.800 150.400 C 130.801 150.680,131.717 151.065,131.834 151.255 C 131.951 151.445,132.476 151.600,133.000 151.600 C 133.524 151.600,134.054 151.763,134.177 151.963 C 134.301 152.163,135.301 152.557,136.401 152.839 C 137.500 153.121,138.400 153.483,138.400 153.644 C 138.400 153.805,138.985 154.065,139.700 154.221 C 140.888 154.482,143.744 155.742,150.200 158.854 C 151.520 159.491,152.825 160.009,153.100 160.006 C 153.375 160.003,153.600 160.136,153.600 160.303 C 153.600 160.632,156.421 161.600,157.382 161.600 C 158.006 161.600,160.857 160.117,161.200 159.614 C 161.310 159.452,161.850 159.086,162.400 158.801 C 163.496 158.231,165.102 157.003,167.759 154.700 C 168.711 153.875,169.694 153.200,169.945 153.200 C 170.195 153.200,170.400 152.947,170.400 152.638 C 170.400 152.328,171.660 150.859,173.200 149.372 C 174.740 147.885,176.000 146.471,176.000 146.230 C 176.000 145.989,176.450 145.307,177.000 144.713 C 177.550 144.120,178.000 143.469,178.000 143.266 C 178.000 143.064,178.266 142.677,178.592 142.407 C 179.293 141.824,180.400 139.702,180.400 138.939 C 180.400 138.642,180.580 138.400,180.800 138.400 C 181.020 138.400,181.200 138.040,181.200 137.600 C 181.200 137.160,181.380 136.800,181.600 136.800 C 181.820 136.800,182.000 136.350,182.000 135.800 C 182.000 135.250,182.180 134.800,182.400 134.800 C 182.620 134.800,182.800 134.386,182.800 133.880 C 182.800 133.374,182.949 132.789,183.130 132.580 C 183.715 131.907,185.220 125.513,185.779 121.322 C 186.262 117.694,186.027 108.614,185.377 105.800 C 185.021 104.260,184.643 102.460,184.537 101.800 C 184.353 100.646,183.902 99.377,183.153 97.905 C 182.959 97.523,182.800 96.758,182.800 96.205 C 182.800 95.652,182.620 95.200,182.400 95.200 C 182.180 95.200,182.000 94.840,182.000 94.400 C 182.000 93.960,181.820 93.600,181.600 93.600 C 181.380 93.600,181.200 93.245,181.200 92.812 C 181.200 92.379,180.840 91.389,180.400 90.612 C 179.960 89.835,179.218 88.526,178.752 87.702 C 177.289 85.118,175.762 83.081,173.443 80.618 C 172.209 79.309,171.198 78.139,171.196 78.018 C 171.194 77.898,170.614 77.350,169.906 76.800 C 169.198 76.250,167.984 75.260,167.209 74.600 C 165.317 72.989,163.312 71.600,162.878 71.600 C 162.683 71.600,162.198 71.240,161.800 70.800 C 161.402 70.360,160.856 70.000,160.587 70.000 C 160.318 70.000,159.878 69.735,159.609 69.411 C 159.340 69.086,158.508 68.706,157.760 68.566 C 157.012 68.426,156.400 68.151,156.400 67.955 C 156.400 67.760,156.135 67.600,155.812 67.600 C 155.489 67.600,154.634 67.269,153.912 66.865 C 153.190 66.460,152.150 66.024,151.600 65.895 C 151.050 65.767,148.912 65.191,146.848 64.616 C 140.917 62.962,133.579 62.463,126.800 63.253 M258.980 66.366 C 258.771 66.568,257.520 66.815,256.200 66.915 C 254.880 67.015,253.170 67.287,252.400 67.521 C 251.630 67.754,250.100 68.212,249.000 68.538 C 244.155 69.977,237.839 72.919,235.800 74.686 C 235.580 74.877,234.525 75.633,233.455 76.367 C 229.912 78.796,222.169 86.970,220.850 89.673 C 220.548 90.293,220.143 90.800,219.950 90.800 C 219.758 90.800,219.600 91.160,219.600 91.600 C 219.600 92.040,219.420 92.400,219.200 92.400 C 218.980 92.400,218.800 92.634,218.800 92.920 C 218.800 93.656,217.859 95.593,217.500 95.597 C 217.335 95.599,217.200 95.945,217.200 96.367 C 217.200 96.788,217.031 97.193,216.825 97.267 C 216.618 97.340,216.385 97.888,216.306 98.485 C 216.228 99.082,216.037 99.697,215.882 99.852 C 215.727 100.007,215.600 100.643,215.600 101.267 C 215.600 101.890,215.420 102.400,215.200 102.400 C 214.980 102.400,214.800 102.904,214.800 103.520 C 214.800 104.136,214.639 104.811,214.442 105.020 C 213.097 106.448,212.187 119.216,213.060 124.400 C 213.375 126.270,213.734 128.520,213.857 129.400 C 213.981 130.280,214.244 131.171,214.441 131.380 C 214.638 131.589,214.800 132.264,214.800 132.880 C 214.800 133.496,214.980 134.000,215.200 134.000 C 215.420 134.000,215.600 134.445,215.600 134.988 C 215.600 135.531,215.960 136.617,216.400 137.400 C 216.840 138.183,217.200 139.179,217.200 139.612 C 217.200 140.045,217.335 140.401,217.500 140.401 C 217.665 140.402,218.250 141.392,218.800 142.600 C 219.350 143.808,219.935 144.798,220.100 144.799 C 220.265 144.799,220.400 144.980,220.400 145.199 C 220.400 145.740,223.836 150.237,225.696 152.131 C 226.523 152.973,227.200 153.781,227.200 153.928 C 227.200 154.361,233.360 159.988,233.841 159.994 C 234.083 159.997,234.846 160.540,235.537 161.200 C 236.775 162.383,238.000 162.781,238.000 162.000 C 238.000 161.780,238.360 161.600,238.800 161.600 C 239.240 161.600,239.600 161.420,239.600 161.200 C 239.600 160.980,239.872 160.800,240.205 160.800 C 240.538 160.800,241.123 160.641,241.505 160.446 C 241.887 160.252,244.090 159.250,246.400 158.219 C 248.710 157.189,251.320 155.998,252.200 155.572 C 253.080 155.146,254.025 154.798,254.300 154.799 C 254.575 154.800,254.800 154.653,254.800 154.472 C 254.800 154.292,255.700 153.900,256.800 153.600 C 257.900 153.300,258.800 152.908,258.800 152.728 C 258.800 152.547,259.233 152.400,259.762 152.400 C 260.291 152.400,261.416 152.051,262.262 151.625 C 263.108 151.199,265.330 150.279,267.200 149.580 C 269.070 148.882,271.680 147.890,273.000 147.376 C 274.320 146.861,276.750 146.050,278.400 145.573 C 280.050 145.096,281.713 144.547,282.095 144.353 C 282.477 144.159,283.242 144.000,283.795 144.000 C 284.348 144.000,284.800 143.820,284.800 143.600 C 284.800 143.380,285.340 143.200,286.000 143.200 C 286.660 143.200,287.200 143.020,287.200 142.800 C 287.200 142.580,287.740 142.400,288.400 142.400 C 289.060 142.400,289.600 142.240,289.600 142.045 C 289.600 141.850,290.095 141.593,290.700 141.474 C 291.305 141.355,293.870 140.687,296.400 139.990 C 298.930 139.293,301.720 138.564,302.600 138.369 C 314.368 135.769,314.659 135.613,315.474 131.495 C 315.594 130.887,315.851 130.292,316.046 130.171 C 316.241 130.051,316.400 129.052,316.400 127.950 C 316.400 126.849,316.591 125.590,316.825 125.154 C 317.446 123.993,317.441 111.571,316.817 108.200 C 314.922 97.951,310.179 89.372,301.505 80.500 C 299.516 78.465,297.688 76.799,297.444 76.798 C 297.200 76.797,296.425 76.257,295.722 75.598 C 295.019 74.939,294.285 74.400,294.091 74.400 C 293.898 74.400,293.317 73.950,292.800 73.400 C 292.283 72.850,291.710 72.400,291.526 72.400 C 290.969 72.400,287.410 70.661,287.267 70.319 C 287.193 70.143,286.902 70.000,286.620 70.000 C 286.095 70.000,282.357 68.620,281.105 67.964 C 280.723 67.764,279.508 67.600,278.405 67.600 C 277.302 67.600,276.400 67.420,276.400 67.200 C 276.400 66.978,275.341 66.800,274.024 66.800 C 272.717 66.800,271.536 66.620,271.400 66.400 C 271.086 65.893,259.504 65.861,258.980 66.366 M238.568 97.544 C 244.125 100.806,243.374 109.407,237.256 112.571 C 234.624 113.932,229.600 111.746,229.600 109.240 C 229.600 108.778,229.420 108.400,229.200 108.400 C 228.971 108.400,228.800 107.200,228.800 105.600 C 228.800 104.000,228.971 102.800,229.200 102.800 C 229.420 102.800,229.600 102.440,229.600 102.000 C 229.600 101.560,229.780 101.200,230.000 101.200 C 230.220 101.200,230.400 100.917,230.400 100.571 C 230.400 98.163,236.052 96.068,238.568 97.544 M161.674 98.361 C 168.486 101.017,168.002 113.171,161.042 114.215 C 158.010 114.669,153.600 111.774,153.600 109.328 C 153.600 108.844,153.420 108.336,153.200 108.200 C 152.660 107.866,152.693 104.839,153.255 103.160 C 154.573 99.224,158.356 97.067,161.674 98.361 M124.040 109.654 C 130.516 111.814,131.305 120.947,125.305 124.300 C 124.195 124.921,120.318 124.958,119.714 124.354 C 119.468 124.108,118.847 123.699,118.334 123.444 C 116.814 122.689,115.220 119.344,115.209 116.884 C 115.187 111.816,119.626 108.181,124.040 109.654 M274.742 114.631 C 277.451 115.982,279.518 122.615,277.600 123.800 C 277.380 123.936,277.200 124.315,277.200 124.642 C 277.200 125.325,275.925 126.664,274.239 127.750 C 268.865 131.214,261.669 123.425,265.600 118.400 C 266.030 117.850,266.386 117.252,266.391 117.071 C 266.446 115.029,272.181 113.353,274.742 114.631 M244.320 120.080 C 244.584 120.344,244.804 121.109,244.809 121.780 C 244.829 124.599,247.191 125.756,252.495 125.547 C 257.224 125.360,257.868 126.268,254.316 128.114 C 251.168 129.748,248.477 129.521,244.998 127.325 C 241.564 125.157,240.270 119.600,243.200 119.600 C 243.552 119.600,244.056 119.816,244.320 120.080 M154.424 120.846 C 154.882 121.700,154.600 125.201,154.042 125.600 C 153.887 125.710,153.353 126.385,152.854 127.099 C 150.889 129.913,148.719 130.917,145.022 130.723 C 141.802 130.554,141.484 130.436,139.571 128.700 C 137.663 126.968,139.100 125.096,141.329 126.411 C 145.541 128.896,150.239 127.208,151.568 122.733 C 152.407 119.909,153.527 119.169,154.424 120.846 M20.500 255.098 C 20.005 255.185,19.600 255.423,19.600 255.628 C 19.600 255.833,19.366 256.000,19.080 256.000 C 18.344 256.000,16.407 256.941,16.403 257.300 C 16.401 257.465,16.199 257.600,15.954 257.600 C 15.248 257.600,12.413 260.850,11.679 262.500 C 11.312 263.325,10.874 264.000,10.706 264.000 C 10.538 264.000,10.400 264.349,10.400 264.776 C 10.400 265.203,10.220 265.664,10.000 265.800 C 9.780 265.936,9.600 266.746,9.600 267.600 C 9.600 268.454,9.420 269.264,9.200 269.400 C 8.701 269.708,8.657 282.127,9.151 283.105 C 9.718 284.229,10.400 286.594,10.400 287.440 C 10.400 287.871,10.760 288.483,11.200 288.800 C 11.640 289.117,12.000 289.620,12.000 289.917 C 12.000 290.515,12.211 290.743,14.772 292.904 C 15.747 293.727,16.832 294.400,17.184 294.400 C 17.536 294.400,18.083 294.760,18.400 295.200 C 18.993 296.022,27.324 296.472,27.667 295.700 C 27.740 295.535,28.655 294.970,29.701 294.444 C 32.198 293.188,35.787 289.231,36.272 287.200 C 36.403 286.650,36.654 286.016,36.829 285.791 C 38.364 283.818,39.443 272.774,38.427 269.428 C 38.222 268.753,37.833 267.390,37.562 266.400 C 36.542 262.675,32.302 256.800,30.634 256.800 C 30.311 256.800,29.936 256.620,29.800 256.400 C 29.664 256.180,29.149 256.000,28.656 256.000 C 28.163 256.000,27.589 255.843,27.380 255.651 C 26.955 255.261,21.897 254.854,20.500 255.098 M364.000 258.800 C 364.000 259.020,363.735 259.200,363.412 259.200 C 361.573 259.200,357.736 262.411,356.416 265.054 C 354.661 268.568,354.430 278.361,356.060 280.180 C 356.247 280.389,356.400 280.879,356.400 281.268 C 356.400 281.657,356.760 282.617,357.200 283.400 C 357.640 284.183,358.000 285.006,358.000 285.229 C 358.000 285.452,358.183 285.851,358.407 286.117 C 359.967 287.967,360.400 288.564,360.400 288.870 C 360.400 290.307,364.540 293.078,367.315 293.498 C 373.319 294.406,376.855 293.100,380.257 288.714 C 383.280 284.819,385.338 271.578,383.247 269.487 C 383.001 269.241,382.800 268.571,382.800 267.999 C 382.800 265.565,378.777 260.000,377.017 260.000 C 376.678 260.000,376.400 259.820,376.400 259.600 C 376.400 259.380,376.040 259.200,375.600 259.200 C 375.160 259.200,374.800 259.020,374.800 258.800 C 374.800 258.553,372.733 258.400,369.400 258.400 C 366.067 258.400,364.000 258.553,364.000 258.800 " stroke="none" fill="#9454ac" fill-rule="evenodd"></path><path id="path2" d="M326.000 133.855 C 320.011 134.482,312.413 135.917,308.172 137.222 C 307.496 137.430,306.472 137.600,305.895 137.600 C 305.319 137.600,304.736 137.780,304.600 138.000 C 304.464 138.220,303.769 138.400,303.056 138.400 C 302.343 138.400,301.589 138.547,301.380 138.727 C 301.171 138.907,300.010 139.274,298.800 139.542 C 296.311 140.095,293.067 141.053,286.400 143.207 C 283.870 144.025,280.720 145.005,279.400 145.387 C 275.464 146.523,274.268 146.947,272.888 147.692 C 272.166 148.081,271.232 148.400,270.811 148.400 C 270.391 148.400,269.958 148.544,269.849 148.721 C 269.740 148.897,268.739 149.290,267.625 149.593 C 266.511 149.896,265.600 150.292,265.600 150.472 C 265.600 150.653,265.060 150.800,264.400 150.800 C 263.740 150.800,263.200 150.944,263.200 151.120 C 263.200 151.295,262.525 151.665,261.700 151.941 C 259.697 152.612,256.996 153.741,252.345 155.851 C 250.225 156.813,248.200 157.600,247.845 157.600 C 247.490 157.600,247.200 157.780,247.200 158.000 C 247.200 158.220,246.840 158.400,246.400 158.400 C 245.960 158.400,245.600 158.580,245.600 158.800 C 245.600 159.020,245.364 159.200,245.075 159.200 C 244.786 159.200,243.805 159.560,242.894 160.000 C 241.984 160.440,241.054 160.800,240.829 160.800 C 240.604 160.800,239.830 161.159,239.110 161.599 C 238.389 162.038,237.485 162.398,237.100 162.399 C 236.715 162.399,236.400 162.536,236.400 162.702 C 236.400 162.991,234.772 163.643,232.200 164.384 C 230.092 164.991,228.216 165.785,227.671 166.300 C 227.381 166.575,226.896 166.800,226.595 166.800 C 226.294 166.800,225.007 167.340,223.735 168.000 C 222.463 168.660,221.192 169.200,220.911 169.200 C 220.630 169.200,220.400 169.380,220.400 169.600 C 220.400 169.820,220.055 170.000,219.633 170.000 C 219.212 170.000,218.807 170.142,218.733 170.315 C 218.660 170.488,217.520 171.140,216.200 171.764 C 214.880 172.388,213.170 173.295,212.400 173.780 C 208.958 175.947,207.390 177.022,207.267 177.300 C 207.083 177.714,204.342 177.662,201.026 177.183 C 199.501 176.963,195.361 176.775,191.826 176.765 C 185.193 176.747,181.289 176.032,179.823 174.565 C 179.512 174.254,179.018 174.000,178.725 174.000 C 178.432 174.000,177.968 173.640,177.693 173.200 C 177.418 172.760,176.943 172.400,176.637 172.400 C 176.051 172.400,171.823 170.274,170.800 169.465 C 169.771 168.652,160.689 163.783,157.817 162.504 C 156.947 162.117,154.460 160.945,152.292 159.900 C 150.124 158.855,148.156 158.000,147.920 158.000 C 147.684 158.000,146.030 157.299,144.245 156.442 C 139.513 154.169,137.246 153.200,136.664 153.200 C 136.382 153.200,135.405 152.840,134.494 152.400 C 133.584 151.960,132.596 151.600,132.299 151.600 C 132.003 151.600,131.589 151.449,131.380 151.265 C 131.171 151.080,129.830 150.526,128.400 150.034 C 126.970 149.541,125.260 148.902,124.600 148.613 C 123.940 148.325,123.040 147.992,122.600 147.875 C 121.119 147.478,114.619 145.529,112.400 144.817 C 109.392 143.852,104.933 142.546,103.000 142.065 C 102.120 141.845,100.680 141.476,99.800 141.243 C 98.920 141.011,96.490 140.437,94.400 139.968 C 92.310 139.499,89.684 138.889,88.565 138.612 C 86.876 138.195,86.348 138.205,85.465 138.668 C 84.879 138.974,84.400 139.124,84.400 139.000 C 84.400 138.876,83.584 139.230,82.586 139.787 C 81.588 140.344,80.506 140.800,80.180 140.800 C 79.855 140.800,79.232 140.980,78.795 141.200 C 78.358 141.420,77.642 141.780,77.205 142.000 C 76.768 142.220,76.155 142.400,75.843 142.400 C 75.531 142.400,74.584 142.737,73.738 143.148 C 72.892 143.560,71.030 144.387,69.600 144.987 C 68.170 145.588,66.280 146.421,65.400 146.840 C 64.520 147.259,63.606 147.602,63.368 147.601 C 63.130 147.600,62.050 148.049,60.968 148.599 C 59.886 149.148,58.413 149.708,57.696 149.844 C 56.978 149.980,56.293 150.250,56.172 150.445 C 56.051 150.640,55.648 150.806,55.276 150.813 C 54.904 150.819,53.525 151.359,52.210 152.013 C 50.896 152.666,49.411 153.200,48.910 153.200 C 48.410 153.200,48.000 153.380,48.000 153.600 C 48.000 153.820,47.640 154.000,47.200 154.000 C 46.760 154.000,46.400 154.180,46.400 154.400 C 46.400 154.620,46.044 154.800,45.610 154.800 C 45.175 154.800,44.230 155.162,43.510 155.605 C 40.955 157.175,36.901 157.808,33.672 157.141 C 31.147 156.619,29.293 157.268,27.193 159.407 L 25.400 161.232 25.121 167.116 C 24.968 170.352,24.660 176.780,24.437 181.400 C 24.213 186.020,23.836 193.850,23.599 198.800 C 23.361 203.750,22.995 211.040,22.785 215.000 C 22.006 229.661,21.934 232.626,22.370 232.000 C 22.600 231.670,22.791 229.430,22.794 227.021 C 22.797 224.613,22.980 220.653,23.199 218.221 C 23.727 212.369,24.437 199.316,24.646 191.600 C 24.738 188.190,24.991 183.524,25.207 181.231 C 25.423 178.937,25.604 174.707,25.608 171.831 C 25.624 160.974,27.175 157.600,32.147 157.600 C 33.511 157.600,34.400 157.773,34.400 158.038 C 34.400 158.331,35.044 158.386,36.362 158.205 C 37.951 157.987,38.394 158.060,38.690 158.589 C 38.936 159.029,41.204 159.765,45.628 160.840 C 49.243 161.719,52.513 162.609,52.895 162.819 C 53.277 163.028,53.941 163.200,54.371 163.200 C 54.801 163.200,55.264 163.380,55.400 163.600 C 55.536 163.820,56.346 164.000,57.200 164.000 C 58.054 164.000,58.852 164.160,58.973 164.356 C 59.094 164.551,59.779 164.803,60.496 164.914 C 61.798 165.116,73.527 168.079,75.800 168.781 C 76.460 168.984,80.060 169.888,83.800 170.789 C 87.540 171.690,90.913 172.601,91.295 172.814 C 91.677 173.026,92.294 173.200,92.666 173.200 C 93.039 173.200,93.896 173.370,94.572 173.579 C 96.139 174.061,100.184 175.170,102.000 175.615 C 102.770 175.803,105.920 176.614,109.000 177.418 C 112.080 178.221,115.230 179.029,116.000 179.213 C 122.129 180.683,125.907 181.692,126.495 182.016 C 126.877 182.227,127.721 182.400,128.371 182.400 C 129.021 182.400,129.664 182.580,129.800 182.800 C 129.936 183.020,130.429 183.200,130.895 183.200 C 131.362 183.200,132.296 183.376,132.972 183.591 C 135.431 184.375,146.516 187.039,153.733 188.580 C 155.980 189.060,156.078 189.046,156.395 188.214 C 157.092 186.380,164.597 181.600,166.780 181.600 C 167.158 181.600,167.595 181.471,167.753 181.314 C 168.159 180.908,171.595 180.039,172.876 180.018 C 173.468 180.008,174.064 179.820,174.200 179.600 C 174.336 179.380,175.077 179.200,175.846 179.200 C 176.616 179.200,178.000 179.030,178.923 178.823 C 179.845 178.616,181.095 178.342,181.700 178.215 C 182.305 178.089,182.800 177.718,182.800 177.392 C 182.800 176.725,183.642 176.602,184.224 177.184 C 184.436 177.396,188.477 177.648,193.204 177.744 C 197.932 177.840,203.150 178.124,204.800 178.375 C 206.450 178.626,208.880 178.929,210.200 179.049 C 211.520 179.169,212.771 179.432,212.980 179.634 C 213.189 179.835,213.763 180.000,214.256 180.000 C 214.749 180.000,215.264 180.180,215.400 180.400 C 215.536 180.620,216.177 180.800,216.824 180.800 C 217.471 180.800,218.000 180.980,218.000 181.200 C 218.000 181.420,218.360 181.600,218.800 181.600 C 219.240 181.600,219.600 181.780,219.600 182.000 C 219.600 182.220,219.878 182.400,220.218 182.400 C 220.558 182.400,221.286 182.850,221.836 183.400 C 222.386 183.950,223.069 184.400,223.354 184.400 C 223.638 184.400,224.688 185.300,225.686 186.400 C 227.397 188.286,229.600 189.187,229.600 188.000 C 229.600 187.780,230.412 187.600,231.405 187.600 C 232.398 187.600,233.523 187.433,233.905 187.228 C 234.498 186.911,238.201 186.092,245.000 184.773 C 247.885 184.214,252.567 183.226,254.306 182.809 C 255.244 182.584,256.459 182.400,257.006 182.400 C 257.553 182.400,258.000 182.220,258.000 182.000 C 258.000 181.780,258.864 181.600,259.920 181.600 C 260.976 181.600,262.011 181.438,262.220 181.241 C 262.429 181.044,263.365 180.774,264.300 180.641 C 265.235 180.508,266.765 180.292,267.700 180.159 C 268.635 180.026,269.571 179.756,269.780 179.559 C 269.989 179.362,270.898 179.200,271.800 179.200 C 272.702 179.200,273.611 179.038,273.820 178.841 C 274.029 178.644,274.920 178.383,275.800 178.261 C 277.708 177.998,278.445 177.852,291.684 175.102 C 297.339 173.927,302.094 172.839,302.250 172.683 C 302.406 172.527,303.213 172.400,304.043 172.400 C 304.873 172.400,305.664 172.220,305.800 172.000 C 305.936 171.780,306.836 171.600,307.800 171.600 C 308.764 171.600,309.664 171.420,309.800 171.200 C 309.936 170.980,310.937 170.800,312.024 170.800 C 313.111 170.800,314.000 170.638,314.000 170.440 C 314.000 170.242,314.765 169.981,315.700 169.859 C 316.635 169.737,318.390 169.457,319.600 169.237 C 320.810 169.016,322.430 168.726,323.200 168.591 C 323.970 168.456,324.960 168.188,325.400 167.995 C 325.840 167.803,326.920 167.564,327.800 167.465 C 328.680 167.365,331.560 166.802,334.200 166.213 C 339.342 165.066,345.355 163.790,348.600 163.156 C 349.700 162.941,351.410 162.566,352.400 162.322 C 356.095 161.413,360.026 161.667,361.665 162.921 C 364.797 165.317,364.586 161.858,364.716 212.900 C 364.789 241.624,364.974 258.400,365.216 258.400 C 365.749 258.400,365.727 172.666,365.193 169.200 C 364.973 167.770,364.693 166.163,364.571 165.630 C 364.327 164.560,361.401 161.600,360.588 161.600 C 359.370 161.600,356.897 159.839,356.185 158.464 C 355.195 156.554,352.507 152.512,352.110 152.337 C 351.939 152.261,351.301 151.465,350.691 150.566 C 349.415 148.685,340.713 139.936,338.970 138.781 C 338.326 138.355,336.990 137.376,336.000 136.605 C 335.010 135.834,333.812 135.034,333.339 134.826 C 332.865 134.619,332.386 134.301,332.275 134.121 C 332.058 133.770,328.322 133.612,326.000 133.855 M21.503 238.200 C 21.056 242.414,21.116 247.044,21.612 246.548 C 21.866 246.294,21.981 244.071,21.912 240.768 C 21.809 235.843,21.775 235.631,21.503 238.200 M20.731 252.600 C 20.465 254.661,20.517 254.985,21.075 254.742 C 21.254 254.664,21.308 253.700,21.195 252.600 L 20.990 250.600 20.731 252.600 M364.835 296.600 C 364.772 298.360,364.754 313.780,364.796 330.867 L 364.872 361.935 363.936 362.542 C 363.421 362.876,360.570 363.606,357.600 364.165 C 354.630 364.724,348.780 365.899,344.600 366.775 C 340.420 367.652,336.563 368.376,336.028 368.385 C 335.494 368.393,334.504 368.569,333.828 368.776 C 333.153 368.983,331.610 369.335,330.400 369.558 C 328.113 369.981,325.594 370.456,311.200 373.182 C 306.470 374.078,301.520 375.068,300.200 375.381 C 296.824 376.182,294.167 376.712,289.200 377.577 C 288.210 377.750,286.050 378.168,284.400 378.508 C 282.750 378.847,279.330 379.519,276.800 380.001 C 272.717 380.778,268.872 381.521,257.400 383.749 C 255.640 384.091,252.461 384.737,250.335 385.185 C 248.209 385.633,245.959 386.066,245.335 386.147 C 244.711 386.228,243.930 386.392,243.600 386.510 C 243.270 386.628,241.920 386.921,240.600 387.162 C 239.280 387.402,235.487 388.139,232.171 388.799 C 228.855 389.460,226.020 390.000,225.871 390.000 C 225.722 390.000,225.598 390.225,225.597 390.500 C 225.595 390.775,224.965 391.663,224.197 392.473 C 223.428 393.284,222.800 394.140,222.800 394.377 C 222.800 395.163,214.242 403.433,211.600 405.201 C 210.170 406.157,208.910 407.052,208.800 407.189 C 206.569 409.964,189.646 413.731,183.600 412.798 C 182.390 412.611,180.196 412.445,178.724 412.429 C 177.252 412.413,175.948 412.239,175.826 412.042 C 175.705 411.845,174.929 411.582,174.103 411.458 C 170.522 410.917,169.600 410.691,169.600 410.356 C 169.600 410.160,169.251 410.000,168.824 410.000 C 168.397 410.000,167.936 409.820,167.800 409.600 C 167.664 409.380,167.231 409.200,166.838 409.200 C 166.005 409.200,163.724 408.123,163.381 407.569 C 163.252 407.360,162.425 406.821,161.545 406.372 C 157.551 404.334,152.132 398.964,147.747 392.696 C 145.999 390.199,144.948 389.438,142.750 389.078 C 142.007 388.957,140.590 388.654,139.600 388.404 C 138.610 388.155,137.260 387.860,136.600 387.748 C 135.940 387.637,135.040 387.400,134.600 387.223 C 134.160 387.046,131.550 386.331,128.800 385.634 C 126.050 384.938,123.080 384.186,122.200 383.962 C 119.497 383.276,117.070 382.758,115.497 382.532 C 114.671 382.413,113.895 382.155,113.774 381.958 C 113.652 381.761,112.944 381.600,112.200 381.600 C 111.456 381.600,110.736 381.420,110.600 381.200 C 110.464 380.980,109.643 380.800,108.776 380.800 C 107.909 380.800,107.200 380.620,107.200 380.400 C 107.200 380.180,106.491 380.000,105.624 380.000 C 104.757 380.000,103.936 379.820,103.800 379.600 C 103.664 379.380,102.944 379.200,102.200 379.200 C 101.456 379.200,100.736 379.020,100.600 378.800 C 100.464 378.580,99.643 378.400,98.776 378.400 C 97.909 378.400,97.200 378.220,97.200 378.000 C 97.200 377.780,96.491 377.600,95.624 377.600 C 94.757 377.600,93.948 377.440,93.827 377.244 C 93.706 377.049,93.021 376.795,92.304 376.680 C 91.169 376.498,80.810 373.975,76.200 372.757 C 75.320 372.524,73.925 372.169,73.100 371.967 C 72.275 371.765,70.925 371.435,70.100 371.233 C 67.244 370.534,64.995 369.944,63.772 369.573 C 63.096 369.368,62.072 369.200,61.495 369.200 C 60.919 369.200,60.336 369.020,60.200 368.800 C 60.064 368.580,59.387 368.400,58.696 368.400 C 55.537 368.400,61.469 370.148,70.505 371.880 C 71.113 371.997,71.708 372.251,71.829 372.446 C 71.949 372.641,72.478 372.800,73.004 372.800 C 73.530 372.800,75.005 373.087,76.280 373.439 C 78.692 374.103,80.677 374.594,83.400 375.200 C 84.280 375.396,85.720 375.738,86.600 375.960 C 89.767 376.759,91.479 377.182,96.400 378.381 C 99.150 379.051,102.030 379.771,102.800 379.980 C 103.570 380.190,105.820 380.741,107.800 381.204 C 109.780 381.668,111.713 382.216,112.095 382.423 C 112.477 382.630,113.321 382.800,113.971 382.800 C 114.621 382.800,115.264 382.980,115.400 383.200 C 115.536 383.420,116.222 383.608,116.924 383.618 C 118.361 383.638,121.811 384.478,122.247 384.914 C 122.405 385.071,123.123 385.200,123.843 385.200 C 124.563 385.200,125.252 385.361,125.374 385.558 C 125.495 385.755,126.271 385.999,127.097 386.101 C 127.924 386.202,130.760 386.835,133.400 387.506 C 136.040 388.177,139.820 389.120,141.800 389.602 L 145.400 390.479 148.600 394.701 C 152.983 400.483,157.723 405.114,160.602 406.428 C 161.359 406.773,162.298 407.332,162.689 407.669 C 168.443 412.630,186.570 415.116,197.000 412.375 C 198.760 411.913,200.608 411.438,201.106 411.319 C 201.604 411.201,202.110 410.946,202.230 410.752 C 202.349 410.559,202.799 410.400,203.228 410.400 C 203.979 410.400,207.589 408.894,208.000 408.408 C 208.110 408.279,209.280 407.473,210.600 406.617 C 213.682 404.621,218.000 401.145,218.000 400.662 C 218.000 400.554,219.170 399.343,220.600 397.970 C 222.030 396.597,223.200 395.325,223.200 395.145 C 223.200 393.711,226.498 390.601,228.484 390.161 C 229.648 389.903,231.860 389.398,233.400 389.038 C 234.940 388.678,237.460 388.209,239.000 387.996 C 240.540 387.784,242.970 387.321,244.400 386.968 C 245.830 386.614,247.900 386.188,249.000 386.020 C 250.100 385.852,252.350 385.434,254.000 385.091 C 255.650 384.748,258.260 384.252,259.800 383.988 C 261.340 383.723,263.122 383.348,263.760 383.154 C 264.398 382.959,265.433 382.800,266.060 382.800 C 266.687 382.800,267.200 382.645,267.200 382.455 C 267.200 382.265,268.325 381.996,269.700 381.858 C 271.075 381.720,273.010 381.442,274.000 381.240 C 276.901 380.650,280.464 379.945,282.400 379.579 C 283.390 379.392,285.370 378.966,286.800 378.631 C 288.230 378.297,290.030 377.941,290.800 377.841 C 291.570 377.741,293.640 377.358,295.400 376.990 C 299.617 376.108,301.332 375.763,304.100 375.237 C 305.365 374.997,307.435 374.603,308.700 374.363 C 309.965 374.123,311.810 373.762,312.800 373.561 C 313.790 373.361,315.320 373.093,316.200 372.968 C 317.080 372.842,318.160 372.583,318.600 372.392 C 319.040 372.201,320.120 371.952,321.000 371.838 C 324.203 371.422,327.837 370.819,329.400 370.443 C 334.293 369.267,336.756 368.800,338.076 368.800 C 338.888 368.800,339.664 368.620,339.800 368.400 C 339.936 368.180,340.430 368.000,340.898 368.000 C 341.366 368.000,342.840 367.743,344.174 367.430 C 348.406 366.434,353.339 365.481,355.200 365.299 C 356.190 365.202,357.171 364.960,357.380 364.761 C 357.589 364.563,358.613 364.400,359.656 364.400 C 360.699 364.400,361.664 364.220,361.800 364.000 C 361.936 363.780,362.474 363.600,362.996 363.600 C 365.637 363.600,365.606 363.926,365.546 336.938 C 365.494 313.640,365.075 289.875,364.835 296.600 M18.642 299.500 C 18.498 301.425,18.300 304.890,18.201 307.200 C 18.102 309.510,17.928 312.390,17.813 313.600 C 17.698 314.810,17.408 321.110,17.167 327.600 C 16.926 334.090,16.677 340.300,16.613 341.400 C 15.559 359.518,15.349 358.650,21.084 359.824 C 22.798 360.175,24.371 360.628,24.580 360.831 C 24.789 361.034,25.543 361.200,26.256 361.200 C 26.969 361.200,27.664 361.380,27.800 361.600 C 27.936 361.820,28.622 362.005,29.324 362.012 C 30.026 362.018,31.860 362.373,33.400 362.800 C 34.940 363.227,36.605 363.582,37.100 363.588 C 37.595 363.595,38.000 363.780,38.000 364.000 C 38.000 364.220,38.720 364.400,39.600 364.400 C 40.480 364.400,41.200 364.580,41.200 364.800 C 41.200 365.020,41.909 365.200,42.776 365.200 C 43.643 365.200,44.464 365.380,44.600 365.600 C 44.736 365.820,45.557 366.000,46.424 366.000 C 47.291 366.000,48.000 366.151,48.000 366.336 C 48.000 366.521,49.305 366.895,50.900 367.169 C 52.495 367.443,54.113 367.831,54.495 368.033 C 55.433 368.529,57.311 368.504,57.000 368.000 C 56.864 367.780,56.371 367.600,55.905 367.600 C 55.438 367.600,54.504 367.424,53.828 367.209 C 53.153 366.994,49.000 365.979,44.600 364.954 C 40.200 363.929,36.429 362.935,36.220 362.745 C 36.011 362.555,35.257 362.400,34.544 362.400 C 33.831 362.400,33.136 362.220,33.000 362.000 C 32.864 361.780,32.054 361.600,31.200 361.600 C 30.346 361.600,29.536 361.420,29.400 361.200 C 29.264 360.980,28.544 360.800,27.800 360.800 C 27.056 360.800,26.336 360.620,26.200 360.400 C 26.064 360.180,25.344 360.000,24.600 360.000 C 23.856 360.000,23.136 359.820,23.000 359.600 C 22.864 359.380,22.191 359.200,21.505 359.200 C 20.037 359.200,17.627 358.415,16.858 357.687 C 16.447 357.298,16.374 356.380,16.555 353.887 C 16.687 352.079,16.906 347.180,17.041 343.000 C 17.177 338.820,17.420 335.220,17.581 335.000 C 17.742 334.780,17.914 330.820,17.963 326.200 C 18.012 321.580,18.220 317.629,18.426 317.420 C 18.634 317.208,18.800 313.266,18.800 308.520 C 18.800 303.107,18.946 300.000,19.200 300.000 C 19.420 300.000,19.600 299.100,19.600 298.000 C 19.600 294.688,18.922 295.750,18.642 299.500 " stroke="none" fill="#fbe28a" fill-rule="evenodd"></path><path id="path3" d="M119.000 4.471 C 115.916 6.194,114.636 12.487,116.861 14.980 C 117.047 15.189,117.200 15.940,117.200 16.649 C 117.200 18.078,117.905 21.756,118.418 23.000 C 118.599 23.440,118.843 24.790,118.960 26.000 C 119.208 28.578,119.665 30.893,120.569 34.163 C 120.929 35.463,121.257 37.308,121.298 38.263 C 121.340 39.218,121.515 40.000,121.687 40.000 C 121.859 40.000,122.000 40.864,122.000 41.920 C 122.000 42.976,122.149 44.011,122.330 44.220 C 122.512 44.429,122.894 45.345,123.180 46.256 C 124.417 50.204,128.369 51.976,131.305 49.900 C 135.105 47.214,135.519 44.879,133.452 37.800 C 133.131 36.700,132.578 34.000,132.224 31.800 C 131.870 29.600,131.405 26.990,131.190 26.000 C 130.976 25.010,130.632 23.300,130.427 22.200 C 130.221 21.100,129.776 19.120,129.437 17.800 C 129.097 16.480,128.618 13.960,128.370 12.200 C 127.427 5.484,123.292 2.073,119.000 4.471 M282.192 12.958 C 281.527 13.247,280.520 14.095,279.953 14.842 C 278.993 16.109,278.690 16.914,278.130 19.700 C 278.009 20.305,277.750 20.800,277.555 20.800 C 277.360 20.800,277.200 21.149,277.200 21.576 C 277.200 22.003,277.020 22.464,276.800 22.600 C 276.580 22.736,276.400 23.287,276.400 23.824 C 276.400 24.361,276.220 24.800,276.000 24.800 C 275.780 24.800,275.600 25.430,275.600 26.200 C 275.600 26.970,275.420 27.600,275.200 27.600 C 274.980 27.600,274.800 28.140,274.800 28.800 C 274.800 29.460,274.620 30.000,274.400 30.000 C 274.180 30.000,274.000 30.355,274.000 30.788 C 274.000 31.221,273.640 32.217,273.200 33.000 C 272.760 33.783,272.400 34.768,272.400 35.189 C 272.400 35.609,272.220 36.064,272.000 36.200 C 271.780 36.336,271.600 36.872,271.600 37.391 C 271.600 37.910,271.348 38.845,271.040 39.468 C 269.213 43.166,268.800 44.151,268.800 44.814 C 268.800 45.220,268.620 45.664,268.400 45.800 C 268.180 45.936,268.000 46.577,268.000 47.224 C 268.000 47.871,267.820 48.400,267.600 48.400 C 267.380 48.400,267.200 49.120,267.200 50.000 C 267.200 50.880,267.020 51.600,266.800 51.600 C 266.580 51.600,266.400 51.870,266.400 52.200 C 266.400 52.530,266.580 52.800,266.800 52.800 C 267.020 52.800,267.200 53.219,267.200 53.730 C 267.200 54.684,268.322 55.951,269.874 56.750 C 270.903 57.280,274.800 57.358,274.800 56.849 C 274.800 56.655,275.340 56.273,276.000 56.000 C 276.731 55.697,277.200 55.209,277.200 54.751 C 277.200 54.338,277.380 54.000,277.600 54.000 C 277.820 54.000,278.000 53.555,278.000 53.012 C 278.000 52.469,278.360 51.383,278.800 50.600 C 279.240 49.817,279.600 48.832,279.600 48.411 C 279.600 47.991,279.759 47.549,279.952 47.430 C 280.146 47.310,280.398 46.804,280.513 46.306 C 280.628 45.808,281.207 44.140,281.799 42.600 C 282.392 41.060,282.915 39.530,282.961 39.200 C 283.043 38.611,283.739 36.875,284.443 35.505 C 284.639 35.123,284.800 34.448,284.800 34.005 C 284.800 33.562,284.980 33.200,285.200 33.200 C 285.420 33.200,285.600 32.755,285.600 32.212 C 285.600 31.669,285.960 30.583,286.400 29.800 C 286.840 29.017,287.200 27.931,287.200 27.388 C 287.200 26.845,287.380 26.400,287.600 26.400 C 287.820 26.400,288.000 26.074,288.000 25.675 C 288.000 25.276,288.337 24.241,288.748 23.375 C 292.097 16.327,288.301 10.296,282.192 12.958 M236.268 13.893 C 232.220 15.242,230.682 22.022,233.663 25.380 C 233.848 25.589,234.000 26.174,234.000 26.680 C 234.000 27.186,234.180 27.600,234.400 27.600 C 234.620 27.600,234.800 28.129,234.800 28.776 C 234.800 29.423,234.980 30.064,235.200 30.200 C 235.420 30.336,235.600 30.966,235.600 31.600 C 235.600 32.234,235.780 32.864,236.000 33.000 C 236.220 33.136,236.400 33.676,236.400 34.200 C 236.400 34.724,236.580 35.264,236.800 35.400 C 237.020 35.536,237.200 36.177,237.200 36.824 C 237.200 37.471,237.380 38.000,237.600 38.000 C 237.820 38.000,238.000 38.720,238.000 39.600 C 238.000 40.480,238.141 41.200,238.313 41.200 C 238.485 41.200,238.857 42.055,239.139 43.100 C 239.422 44.145,239.822 45.314,240.029 45.698 C 240.373 46.338,241.466 49.570,242.817 53.942 C 244.034 57.880,250.081 58.738,252.673 55.340 C 253.873 53.766,253.931 52.701,252.996 49.361 C 252.633 48.063,252.247 46.550,252.138 46.000 C 251.940 45.002,251.422 43.621,250.753 42.305 C 250.559 41.923,250.400 41.259,250.400 40.829 C 250.400 40.399,250.220 39.936,250.000 39.800 C 249.780 39.664,249.600 38.933,249.600 38.176 C 249.600 37.419,249.420 36.800,249.200 36.800 C 248.980 36.800,248.800 36.080,248.800 35.200 C 248.800 34.320,248.620 33.600,248.400 33.600 C 248.180 33.600,248.000 33.330,248.000 33.000 C 248.000 32.670,247.820 32.400,247.600 32.400 C 247.380 32.400,247.200 31.680,247.200 30.800 C 247.200 29.920,247.020 29.200,246.800 29.200 C 246.580 29.200,246.400 28.748,246.400 28.195 C 246.400 27.642,246.238 26.877,246.039 26.495 C 245.840 26.113,245.446 24.990,245.163 24.000 C 244.880 23.010,244.412 21.845,244.124 21.411 C 243.836 20.977,243.600 20.060,243.600 19.372 C 243.600 16.981,241.351 14.000,239.546 14.000 C 239.136 14.000,238.800 13.820,238.800 13.600 C 238.800 13.091,238.610 13.113,236.268 13.893 M169.800 15.087 C 168.664 15.363,166.400 17.143,166.400 17.759 C 166.400 18.044,166.040 18.693,165.600 19.200 C 165.160 19.707,164.798 20.320,164.795 20.561 C 164.792 20.803,163.622 23.340,162.197 26.200 C 160.771 29.060,159.603 31.620,159.602 31.889 C 159.601 32.158,159.154 33.148,158.608 34.089 C 158.062 35.030,157.236 36.610,156.773 37.600 C 154.272 42.942,153.380 44.710,152.654 45.766 C 149.883 49.793,153.336 55.582,158.520 55.598 C 159.979 55.602,162.800 53.513,162.800 52.429 C 162.800 52.230,162.935 52.007,163.100 51.933 C 163.499 51.756,166.000 46.876,166.001 46.273 C 166.002 45.797,168.713 40.294,170.329 37.488 C 170.808 36.656,171.200 35.621,171.200 35.188 C 171.200 34.755,171.380 34.400,171.600 34.400 C 171.820 34.400,172.000 34.040,172.000 33.600 C 172.000 33.160,172.160 32.800,172.356 32.800 C 172.814 32.800,175.832 26.538,175.677 25.908 C 175.637 25.747,175.964 24.976,176.403 24.195 C 179.360 18.930,175.560 13.688,169.800 15.087 M82.600 18.800 C 82.464 19.020,82.048 19.213,81.676 19.229 C 77.672 19.400,77.709 27.352,81.737 32.285 C 82.808 33.597,84.400 36.295,84.400 36.798 C 84.400 36.991,85.218 38.344,86.217 39.803 C 87.216 41.263,88.565 43.554,89.215 44.894 C 89.864 46.235,90.643 47.617,90.946 47.966 C 91.249 48.315,92.421 50.328,93.551 52.440 C 96.347 57.668,98.474 59.104,101.899 58.077 C 106.052 56.831,107.429 53.522,105.449 49.548 C 104.872 48.390,104.400 47.286,104.400 47.094 C 104.400 46.901,103.855 45.952,103.189 44.984 C 101.801 42.966,99.495 38.898,98.494 36.700 C 98.119 35.875,97.672 35.200,97.503 35.200 C 97.333 35.200,96.691 34.165,96.077 32.900 C 95.463 31.635,94.152 29.250,93.163 27.600 C 92.175 25.950,90.760 23.580,90.019 22.333 C 89.277 21.086,88.205 19.850,87.636 19.586 C 87.066 19.323,86.287 18.948,85.905 18.753 C 84.967 18.276,82.906 18.305,82.600 18.800 M320.320 30.100 C 318.927 31.475,317.250 33.320,316.594 34.200 C 315.937 35.080,314.768 36.430,313.996 37.200 C 313.224 37.970,311.694 39.675,310.596 40.989 C 309.498 42.303,308.060 43.955,307.400 44.660 C 306.740 45.365,305.535 46.719,304.722 47.671 C 303.909 48.622,302.649 50.059,301.922 50.864 C 301.195 51.669,299.700 53.361,298.600 54.623 C 297.500 55.885,296.195 57.333,295.700 57.841 C 295.205 58.348,294.800 58.952,294.800 59.182 C 294.800 59.412,294.620 59.600,294.400 59.600 C 294.171 59.600,294.000 60.800,294.000 62.400 C 294.000 64.000,294.171 65.200,294.400 65.200 C 294.620 65.200,294.800 65.454,294.800 65.764 C 294.800 66.963,297.163 68.400,299.131 68.399 C 301.866 68.396,304.086 66.877,306.788 63.159 C 307.331 62.412,308.593 60.990,309.593 60.000 C 310.593 59.010,312.214 57.210,313.196 56.000 C 314.178 54.790,315.705 53.080,316.590 52.200 C 317.476 51.320,318.796 49.842,319.525 48.915 C 320.254 47.988,321.739 46.378,322.825 45.337 C 323.911 44.296,324.800 43.302,324.800 43.129 C 324.800 42.724,326.574 40.692,328.540 38.846 C 330.424 37.078,331.200 35.648,331.200 33.946 C 331.200 32.335,329.723 29.200,328.964 29.200 C 328.654 29.200,328.400 29.056,328.400 28.880 C 328.400 28.381,325.897 27.600,324.298 27.600 C 323.063 27.600,322.486 27.962,320.320 30.100 M193.542 29.284 C 192.740 29.731,191.854 30.525,191.574 31.048 C 191.294 31.572,190.915 32.000,190.732 32.000 C 190.248 32.000,190.326 34.461,190.859 36.040 C 191.339 37.458,191.573 37.811,194.200 41.071 C 195.080 42.163,196.250 43.657,196.800 44.391 C 197.350 45.126,198.025 45.955,198.300 46.235 C 198.575 46.514,198.800 46.896,198.800 47.083 C 198.800 47.270,199.160 47.683,199.600 48.000 C 200.040 48.317,200.400 48.807,200.400 49.088 C 200.400 49.370,200.580 49.600,200.800 49.600 C 201.020 49.600,201.200 49.855,201.200 50.167 C 201.200 50.478,201.345 50.793,201.523 50.867 C 201.701 50.940,202.430 51.855,203.143 52.900 C 205.098 55.767,205.579 55.605,210.892 50.288 C 213.371 47.806,215.940 45.330,216.600 44.786 C 222.906 39.589,223.777 35.146,219.094 32.047 C 216.817 30.540,214.748 30.770,212.414 32.790 C 211.772 33.346,210.702 34.250,210.036 34.800 C 209.369 35.350,208.819 35.982,208.812 36.204 C 208.762 37.906,206.141 37.558,205.157 35.719 C 204.886 35.213,204.523 34.800,204.349 34.800 C 204.176 34.800,203.534 33.945,202.924 32.900 C 200.292 28.392,197.246 27.218,193.542 29.284 M39.789 51.789 C 38.120 53.458,38.000 53.722,38.000 55.698 C 38.000 57.829,39.687 60.800,40.898 60.800 C 41.139 60.800,41.652 61.085,42.037 61.433 C 42.917 62.230,44.652 63.240,48.118 64.973 C 49.614 65.721,51.104 66.555,51.431 66.826 C 52.116 67.394,57.213 70.000,57.640 70.000 C 57.797 70.000,59.157 70.814,60.663 71.809 C 62.168 72.804,63.850 73.731,64.400 73.868 C 64.950 74.005,66.300 74.693,67.400 75.397 C 71.891 78.271,72.206 78.400,74.720 78.400 C 78.274 78.400,81.140 74.726,80.419 71.095 C 80.126 69.617,78.148 67.200,77.232 67.200 C 76.828 67.200,76.253 66.904,75.953 66.543 C 75.653 66.181,73.606 64.996,71.404 63.909 C 66.814 61.642,65.399 60.874,64.011 59.897 C 63.467 59.513,62.773 59.200,62.469 59.200 C 62.165 59.200,61.116 58.660,60.138 58.000 C 59.160 57.340,58.204 56.800,58.013 56.800 C 57.823 56.800,57.607 56.642,57.533 56.450 C 57.460 56.257,56.288 55.541,54.929 54.859 C 53.570 54.176,52.345 53.434,52.206 53.209 C 52.067 52.984,51.603 52.800,51.176 52.800 C 50.749 52.800,50.400 52.636,50.400 52.436 C 50.400 51.563,46.236 50.000,43.911 50.000 C 41.682 50.000,41.500 50.079,39.789 51.789 M126.000 62.867 C 123.748 63.346,121.367 63.943,119.772 64.427 C 119.096 64.632,118.059 64.800,117.466 64.800 C 116.471 64.800,114.873 65.453,114.400 66.054 C 114.290 66.193,113.840 66.397,113.400 66.507 C 112.787 66.661,112.857 66.718,113.700 66.754 C 114.305 66.779,114.801 66.665,114.803 66.500 C 114.808 65.986,116.897 65.200,118.256 65.200 C 118.969 65.200,119.664 65.020,119.800 64.800 C 119.936 64.580,120.631 64.400,121.344 64.400 C 122.057 64.400,122.811 64.233,123.020 64.029 C 124.756 62.333,140.297 62.726,147.000 64.636 C 148.980 65.200,151.050 65.767,151.600 65.896 C 152.150 66.024,153.190 66.460,153.912 66.865 C 154.634 67.269,155.444 67.593,155.712 67.584 C 155.980 67.575,155.660 67.279,155.000 66.926 C 154.340 66.573,153.710 66.155,153.600 65.997 C 153.490 65.839,152.860 65.608,152.200 65.483 C 151.540 65.357,149.560 64.869,147.800 64.399 C 140.732 62.508,130.925 61.819,126.000 62.867 M258.367 65.765 C 258.275 65.856,256.787 66.127,255.059 66.367 C 253.332 66.607,251.712 66.935,251.459 67.097 C 250.755 67.547,245.942 69.240,244.674 69.483 C 243.616 69.685,239.065 71.977,239.689 71.993 C 239.848 71.997,240.928 71.579,242.089 71.065 C 244.549 69.976,246.230 69.361,249.000 68.538 C 250.100 68.212,251.630 67.755,252.400 67.523 C 253.170 67.291,254.790 67.025,256.000 66.933 C 257.210 66.840,258.560 66.593,259.000 66.384 C 259.440 66.174,261.960 65.951,264.600 65.887 L 269.400 65.772 263.967 65.686 C 260.978 65.639,258.458 65.674,258.367 65.765 M271.478 65.856 C 270.877 66.456,271.804 66.800,274.024 66.800 C 275.341 66.800,276.400 66.978,276.400 67.200 C 276.400 67.420,277.302 67.600,278.405 67.600 C 279.508 67.600,280.723 67.764,281.105 67.964 C 282.577 68.735,286.135 69.999,286.318 69.815 C 286.424 69.709,285.991 69.415,285.355 69.162 C 281.606 67.666,280.033 67.201,277.273 66.771 C 275.583 66.508,274.029 66.137,273.820 65.946 C 273.377 65.543,271.850 65.484,271.478 65.856 M358.180 66.318 C 357.971 66.493,357.080 66.869,356.200 67.154 C 355.320 67.438,353.486 68.195,352.125 68.835 C 350.764 69.476,349.457 70.000,349.220 70.000 C 348.746 70.000,348.014 70.330,346.200 71.361 C 345.540 71.737,344.370 72.308,343.600 72.632 C 342.830 72.955,341.887 73.396,341.505 73.610 C 341.123 73.825,340.484 74.000,340.085 74.000 C 339.686 74.000,339.189 74.163,338.980 74.362 C 338.302 75.007,333.151 77.600,332.547 77.600 C 331.930 77.600,330.013 78.484,327.488 79.932 C 326.656 80.410,325.735 80.800,325.442 80.800 C 323.614 80.800,321.211 84.628,321.980 86.316 C 322.211 86.823,322.400 87.502,322.400 87.824 C 322.400 91.761,327.592 93.359,332.120 90.816 C 333.264 90.174,335.100 89.349,336.200 88.984 C 337.300 88.618,339.646 87.618,341.414 86.760 C 343.182 85.902,344.747 85.200,344.892 85.200 C 345.036 85.200,348.090 83.836,351.678 82.170 C 355.265 80.503,359.270 78.658,360.578 78.070 C 365.123 76.025,366.392 73.780,365.162 69.960 C 364.236 67.085,359.940 64.844,358.180 66.318 M111.600 67.062 C 106.925 68.609,92.163 80.102,91.978 82.337 C 91.966 82.482,91.258 83.590,90.404 84.800 C 89.041 86.732,86.501 91.477,85.587 93.800 C 85.414 94.240,84.920 95.410,84.490 96.400 C 83.622 98.399,81.862 105.595,82.167 105.900 C 82.274 106.007,82.478 105.578,82.621 104.947 C 83.316 101.875,83.709 100.392,84.464 98.000 C 85.397 95.045,88.991 87.376,89.628 86.983 C 89.860 86.839,90.225 86.335,90.440 85.861 C 91.831 82.791,99.324 74.497,101.912 73.161 C 102.509 72.852,103.988 71.913,105.199 71.074 C 106.410 70.235,108.525 69.011,109.900 68.354 C 111.275 67.697,112.400 67.078,112.400 66.980 C 112.400 66.881,112.355 66.814,112.300 66.832 C 112.245 66.849,111.930 66.953,111.600 67.062 M156.400 67.988 C 156.400 68.166,157.012 68.426,157.760 68.566 C 158.508 68.706,159.340 69.086,159.609 69.411 C 159.878 69.735,160.318 70.000,160.587 70.000 C 160.856 70.000,161.402 70.360,161.800 70.800 C 162.198 71.240,162.683 71.600,162.878 71.600 C 163.354 71.600,165.360 73.029,167.791 75.100 C 168.888 76.035,169.943 76.800,170.134 76.800 C 170.325 76.800,169.627 76.035,168.583 75.100 C 166.645 73.365,166.223 73.051,163.154 71.065 C 162.189 70.440,160.935 69.602,160.366 69.202 C 159.170 68.359,156.400 67.511,156.400 67.988 M237.800 72.838 C 237.580 73.057,236.477 73.813,235.350 74.518 C 230.763 77.386,223.600 84.292,223.600 85.846 C 223.600 85.997,224.114 85.418,224.742 84.560 C 226.159 82.625,231.190 77.921,233.600 76.279 C 234.590 75.605,235.490 74.930,235.600 74.780 C 235.710 74.630,236.565 74.120,237.500 73.646 C 238.435 73.172,239.200 72.697,239.200 72.592 C 239.200 72.253,238.214 72.427,237.800 72.838 M292.800 73.400 C 293.317 73.950,294.023 74.395,294.370 74.388 C 294.849 74.379,294.808 74.267,294.200 73.923 C 293.760 73.675,293.256 73.230,293.080 72.935 C 292.904 72.641,292.558 72.400,292.310 72.400 C 292.063 72.400,292.283 72.850,292.800 73.400 M295.927 75.800 C 296.581 76.350,297.289 76.800,297.502 76.800 C 297.714 76.800,299.565 78.508,301.616 80.595 C 303.666 82.682,305.411 84.322,305.494 84.239 C 305.742 83.991,298.272 76.400,297.779 76.400 C 297.528 76.400,296.907 76.040,296.400 75.600 C 295.893 75.160,295.311 74.800,295.108 74.800 C 294.905 74.800,295.273 75.250,295.927 75.800 M171.200 78.079 C 171.200 78.162,172.370 79.483,173.800 81.015 C 175.230 82.547,176.400 83.642,176.400 83.448 C 176.400 83.255,175.730 82.355,174.911 81.448 C 173.443 79.822,171.200 77.787,171.200 78.079 M177.126 85.100 C 177.954 86.266,179.333 88.623,180.337 90.585 C 180.671 91.237,181.007 91.579,181.084 91.347 C 181.255 90.835,177.160 84.000,176.683 84.000 C 176.497 84.000,176.697 84.495,177.126 85.100 M306.379 85.900 C 308.208 88.277,311.130 92.687,311.971 94.339 C 312.457 95.295,312.938 95.996,313.038 95.895 C 313.223 95.710,311.605 92.366,311.153 92.000 C 311.017 91.890,310.219 90.722,309.380 89.405 C 308.540 88.087,307.526 86.658,307.127 86.229 C 306.727 85.800,306.400 85.303,306.400 85.125 C 306.400 84.946,306.205 84.800,305.967 84.800 C 305.728 84.800,305.914 85.295,306.379 85.900 M222.040 87.040 C 220.869 88.387,221.180 88.698,222.400 87.400 C 222.915 86.852,223.247 86.314,223.138 86.205 C 223.029 86.095,222.535 86.471,222.040 87.040 M220.100 89.798 C 219.531 90.445,219.461 90.800,219.904 90.800 C 220.071 90.800,220.432 90.440,220.707 90.000 C 221.278 89.087,220.851 88.945,220.100 89.798 M182.814 96.305 C 182.806 96.803,182.967 97.523,183.171 97.905 C 183.375 98.287,183.649 98.941,183.780 99.357 C 183.911 99.774,184.102 100.031,184.205 99.929 C 184.307 99.826,184.039 98.766,183.610 97.571 C 183.150 96.293,182.823 95.772,182.814 96.305 M233.288 97.789 C 231.189 98.988,230.400 99.749,230.400 100.571 C 230.400 100.917,230.220 101.200,230.000 101.200 C 229.780 101.200,229.600 101.560,229.600 102.000 C 229.600 102.440,229.420 102.800,229.200 102.800 C 228.971 102.800,228.800 104.000,228.800 105.600 C 228.800 107.200,228.971 108.400,229.200 108.400 C 229.420 108.400,229.600 108.778,229.600 109.240 C 229.600 110.852,233.093 113.187,235.520 113.198 C 236.305 113.201,238.326 112.072,239.658 110.886 C 245.883 105.338,240.270 93.797,233.288 97.789 M215.843 98.233 C 215.510 99.100,215.536 100.197,215.882 99.852 C 216.199 99.534,216.521 97.600,216.256 97.600 C 216.162 97.600,215.976 97.885,215.843 98.233 M156.872 98.673 C 153.955 100.110,151.292 107.021,153.200 108.200 C 153.420 108.336,153.600 108.844,153.600 109.328 C 153.600 113.024,160.600 115.646,163.783 113.142 C 170.467 107.885,164.315 95.005,156.872 98.673 M314.831 100.476 C 314.909 101.797,316.338 105.000,316.369 103.924 C 316.386 103.332,316.220 102.736,316.000 102.600 C 315.780 102.464,315.600 101.924,315.600 101.400 C 315.600 100.876,315.420 100.336,315.200 100.200 C 314.980 100.064,314.814 100.188,314.831 100.476 M184.568 101.600 C 184.662 102.370,184.952 103.900,185.212 105.000 C 185.471 106.100,185.819 108.170,185.985 109.600 L 186.286 112.200 186.343 110.106 C 186.398 108.081,186.226 107.110,184.979 102.400 C 184.632 101.089,184.466 100.766,184.568 101.600 M215.049 101.130 C 214.872 101.642,214.833 102.167,214.963 102.297 C 215.378 102.711,215.670 102.100,215.518 101.134 L 215.371 100.200 215.049 101.130 M214.003 104.400 C 213.707 105.390,213.315 106.371,213.133 106.580 C 212.950 106.789,212.818 107.869,212.840 108.980 L 212.880 111.000 213.438 108.400 C 213.745 106.970,214.195 105.419,214.438 104.953 C 214.680 104.486,214.803 103.766,214.710 103.353 C 214.597 102.846,214.366 103.188,214.003 104.400 M316.468 106.400 C 316.487 108.050,317.117 109.756,317.132 108.200 C 317.138 107.540,316.989 106.640,316.800 106.200 C 316.487 105.473,316.457 105.491,316.468 106.400 M81.434 108.562 C 81.095 110.365,81.192 120.510,81.560 121.888 C 81.720 122.484,81.845 119.423,81.838 115.086 C 81.826 106.614,81.819 106.507,81.434 108.562 M120.200 109.689 C 114.591 111.677,113.332 120.960,118.334 123.444 C 118.847 123.699,119.468 124.108,119.714 124.354 C 120.819 125.459,124.965 124.798,126.943 123.200 C 132.853 118.424,127.247 107.190,120.200 109.689 M317.319 116.550 C 317.303 120.523,317.435 123.073,317.640 122.750 C 318.064 122.080,318.072 113.622,317.650 111.400 C 317.458 110.384,317.337 112.265,317.319 116.550 M212.387 111.500 C 212.380 111.665,212.274 113.960,212.151 116.600 C 211.981 120.268,212.090 122.202,212.616 124.800 C 212.994 126.670,213.392 128.830,213.499 129.600 C 213.607 130.370,213.829 131.180,213.993 131.400 C 214.157 131.620,214.403 132.539,214.541 133.442 C 214.824 135.301,216.862 140.014,217.089 139.334 C 217.170 139.090,216.868 138.234,216.418 137.433 C 215.968 136.631,215.600 135.531,215.600 134.988 C 215.600 134.445,215.420 134.000,215.200 134.000 C 214.980 134.000,214.800 133.496,214.800 132.880 C 214.800 132.264,214.638 131.589,214.441 131.380 C 214.244 131.171,213.981 130.280,213.857 129.400 C 213.734 128.520,213.383 126.322,213.077 124.516 C 212.711 122.354,212.588 119.518,212.715 116.216 C 212.821 113.457,212.794 111.200,212.654 111.200 C 212.514 111.200,212.394 111.335,212.387 111.500 M185.923 117.800 C 185.771 120.880,185.366 124.444,185.023 125.720 C 184.681 126.995,184.417 128.435,184.439 128.920 C 184.460 129.404,184.786 128.540,185.163 127.000 C 185.539 125.460,185.977 123.921,186.136 123.580 C 186.295 123.239,186.374 120.539,186.312 117.580 L 186.200 112.200 185.923 117.800 M269.022 114.867 C 267.339 115.754,266.406 116.537,266.391 117.071 C 266.386 117.252,266.030 117.850,265.600 118.400 C 261.669 123.425,268.865 131.214,274.239 127.750 C 275.925 126.664,277.200 125.325,277.200 124.642 C 277.200 124.315,277.380 123.936,277.600 123.800 C 278.499 123.244,278.063 117.958,277.003 116.569 C 275.033 113.986,271.944 113.327,269.022 114.867 M242.080 120.080 C 239.950 122.210,243.613 127.542,248.088 128.825 C 251.264 129.736,256.579 128.045,256.316 126.207 C 256.207 125.452,255.963 125.409,252.495 125.547 C 247.191 125.756,244.829 124.599,244.809 121.780 C 244.799 120.435,244.183 119.600,243.200 119.600 C 242.848 119.600,242.344 119.816,242.080 120.080 M152.490 120.500 C 152.266 120.775,151.851 121.780,151.568 122.733 C 150.239 127.208,145.541 128.896,141.329 126.411 C 139.100 125.096,137.663 126.968,139.571 128.700 C 141.484 130.436,141.802 130.554,145.022 130.723 C 148.719 130.917,150.889 129.913,152.854 127.099 C 153.353 126.385,153.887 125.710,154.042 125.600 C 154.600 125.201,154.882 121.700,154.424 120.846 C 153.916 119.896,153.101 119.750,152.490 120.500 M82.041 124.476 C 82.018 125.288,82.160 126.052,82.356 126.173 C 82.551 126.294,82.813 126.979,82.937 127.696 C 83.442 130.619,83.709 131.620,84.040 131.825 C 84.435 132.069,84.045 129.612,83.591 129.000 C 83.428 128.780,83.198 127.970,83.079 127.200 C 82.961 126.430,82.688 125.170,82.473 124.400 L 82.082 123.000 82.041 124.476 M316.700 125.333 C 316.209 126.531,316.330 129.162,316.836 128.293 C 317.062 127.904,317.192 126.914,317.124 126.093 C 317.031 124.978,316.924 124.785,316.700 125.333 M183.738 131.208 C 183.605 131.873,183.340 132.514,183.148 132.632 C 182.957 132.750,182.800 133.055,182.800 133.309 C 182.800 133.599,183.005 133.553,183.349 133.186 C 183.890 132.609,184.570 130.000,184.180 130.000 C 184.070 130.000,183.871 130.544,183.738 131.208 M315.900 130.231 C 315.735 130.397,315.600 130.899,315.600 131.347 C 315.600 131.935,315.721 132.039,316.038 131.722 C 316.278 131.482,316.413 130.980,316.338 130.607 C 316.262 130.233,316.065 130.064,315.900 130.231 M315.030 133.319 C 314.851 133.934,314.816 134.549,314.952 134.685 C 315.400 135.133,315.663 134.494,315.508 133.337 L 315.355 132.200 315.030 133.319 M85.118 134.940 C 85.759 136.209,86.259 136.826,86.346 136.455 C 86.426 136.112,86.291 135.764,86.046 135.682 C 85.801 135.600,85.600 135.188,85.600 134.767 C 85.600 134.345,85.420 134.000,85.200 134.000 C 84.980 134.000,84.800 133.730,84.800 133.400 C 84.800 133.070,84.628 132.800,84.418 132.800 C 84.208 132.800,84.523 133.763,85.118 134.940 M88.433 138.544 C 88.525 138.623,89.140 138.808,89.800 138.956 C 90.676 139.152,90.838 139.115,90.400 138.818 C 89.860 138.453,88.032 138.198,88.433 138.544 M178.600 142.400 C 178.199 142.843,177.962 143.295,178.072 143.405 C 178.182 143.515,178.599 143.243,179.000 142.800 C 179.401 142.357,179.638 141.905,179.528 141.795 C 179.418 141.685,179.001 141.957,178.600 142.400 M176.700 144.988 C 176.315 145.517,176.000 146.112,176.000 146.310 C 176.000 146.507,174.733 147.892,173.185 149.386 C 171.637 150.881,170.472 152.205,170.596 152.329 C 170.977 152.710,175.653 147.881,176.257 146.483 C 176.569 145.758,177.090 145.064,177.413 144.940 C 177.736 144.816,178.000 144.554,178.000 144.357 C 178.000 143.720,177.416 144.003,176.700 144.988 M222.022 148.300 C 222.010 148.575,222.141 148.800,222.314 148.800 C 222.486 148.800,222.927 149.308,223.294 149.928 C 224.187 151.440,226.736 154.197,226.999 153.935 C 227.114 153.819,226.442 152.921,225.504 151.938 C 224.567 150.955,223.405 149.621,222.922 148.975 C 222.439 148.329,222.034 148.025,222.022 148.300 M167.717 154.710 C 164.992 157.123,163.417 158.318,162.274 158.839 C 161.683 159.108,161.200 159.482,161.200 159.669 C 161.200 160.052,166.222 156.981,167.200 155.999 C 167.310 155.889,168.081 155.214,168.914 154.499 C 169.747 153.785,170.197 153.205,169.914 153.210 C 169.631 153.216,168.643 153.891,167.717 154.710 M230.600 157.928 C 231.700 159.061,232.750 159.990,232.934 159.994 C 233.406 160.003,230.365 156.827,229.400 156.303 C 228.960 156.064,229.500 156.796,230.600 157.928 M159.400 160.800 C 158.740 161.208,157.750 161.579,157.200 161.625 C 156.285 161.702,156.274 161.723,157.073 161.879 C 157.960 162.051,160.145 161.137,160.598 160.403 C 160.919 159.885,160.838 159.911,159.400 160.800 M234.773 161.234 C 235.483 161.913,236.169 162.364,236.297 162.236 C 236.560 161.973,234.393 160.001,233.841 160.000 C 233.643 160.000,234.063 160.555,234.773 161.234 M368.000 258.000 C 368.000 258.226,369.133 258.400,370.600 258.400 C 372.067 258.400,373.200 258.226,373.200 258.000 C 373.200 257.774,372.067 257.600,370.600 257.600 C 369.133 257.600,368.000 257.774,368.000 258.000 M13.400 258.936 C 12.138 260.529,11.975 261.353,13.164 260.122 C 13.844 259.419,14.400 258.744,14.400 258.622 C 14.400 258.230,13.812 258.415,13.400 258.936 M378.000 260.242 C 378.000 260.376,378.474 260.858,379.054 261.314 C 379.634 261.770,380.624 262.956,381.254 263.950 C 381.884 264.944,382.400 265.524,382.400 265.240 C 382.400 264.634,381.094 262.660,379.661 261.100 C 378.709 260.064,378.000 259.698,378.000 260.242 M382.681 267.500 C 382.807 268.325,383.085 269.222,383.298 269.492 C 383.511 269.763,383.791 271.923,383.920 274.292 C 384.113 277.821,384.210 278.311,384.459 277.000 C 384.769 275.365,384.085 269.577,383.536 269.188 C 383.372 269.071,383.192 268.306,383.137 267.488 C 383.082 266.670,382.905 266.000,382.743 266.000 C 382.582 266.000,382.554 266.675,382.681 267.500 M8.800 268.624 C 8.800 269.204,8.973 269.540,9.200 269.400 C 9.420 269.264,9.600 268.803,9.600 268.376 C 9.600 267.949,9.420 267.600,9.200 267.600 C 8.980 267.600,8.800 268.061,8.800 268.624 M8.250 272.850 C 7.858 274.808,7.957 279.126,8.400 279.400 C 8.657 279.559,8.800 278.204,8.800 275.624 C 8.800 271.418,8.669 270.756,8.250 272.850 M383.019 282.233 C 381.906 286.419,380.939 288.190,378.421 290.653 C 375.466 293.543,372.543 294.258,366.800 293.495 L 364.600 293.202 366.600 293.783 C 370.295 294.857,374.707 294.364,376.676 292.657 C 377.157 292.240,377.950 291.696,378.436 291.449 C 378.923 291.202,379.519 290.643,379.761 290.206 C 380.002 289.769,380.515 289.118,380.900 288.759 C 381.285 288.400,381.600 287.812,381.600 287.453 C 381.600 287.094,381.780 286.800,382.000 286.800 C 382.220 286.800,382.362 286.665,382.315 286.500 C 382.269 286.335,382.639 284.880,383.137 283.266 C 383.636 281.652,383.979 280.137,383.899 279.898 C 383.820 279.660,383.424 280.711,383.019 282.233 M9.606 286.300 C 9.603 287.015,9.780 287.600,10.000 287.600 C 10.508 287.600,10.508 286.386,10.000 285.600 C 9.706 285.145,9.611 285.314,9.606 286.300 M10.400 288.629 C 10.400 289.053,11.636 290.097,11.867 289.867 C 11.992 289.741,11.817 289.360,11.476 289.019 C 10.841 288.384,10.400 288.224,10.400 288.629 M14.617 293.398 C 15.708 294.387,16.900 295.197,17.267 295.198 C 17.633 295.199,18.014 295.425,18.112 295.700 C 18.210 295.975,18.427 296.074,18.593 295.919 C 18.978 295.561,17.837 294.400,17.101 294.400 C 16.794 294.400,15.808 293.770,14.908 293.000 C 12.524 290.959,12.286 291.285,14.617 293.398 " stroke="none" fill="#d891f5" fill-rule="evenodd"></path></g></svg>